<?xml version="1.0" encoding="UTF-8"?><svg version="1.1" width="21px" height="21px" viewBox="0 0 21.0 21.0" xmlns="http://www.w3.org/2000/svg" xmlns:xlink="http://www.w3.org/1999/xlink"><defs><clipPath id="i0"><path d="M21,0 L21,21 L0,21 L0,0 L21,0 Z"></path></clipPath><clipPath id="i1"><path d="M3,0 C4.65685425,0 6,1.34314575 6,3 C6,4.65685425 4.65685425,6 3,6 C1.34314575,6 0,4.65685425 0,3 C0,1.34314575 1.34314575,0 3,0 Z"></path></clipPath></defs><g clip-path="url(#i0)"><g transform="translate(2.0 8.0)"><g clip-path="url(#i1)"><path d="M3,6 C4.65685425,6 6,4.65685425 6,3 C6,1.34314575 4.65685425,0 3,0 C1.34314575,0 0,1.34314575 0,3 C0,4.65685425 1.34314575,6 3,6 Z" stroke="#EBEBEB" stroke-width="2" fill="none" stroke-miterlimit="5"></path></g></g><g transform="translate(12.0 2.0)"><g clip-path="url(#i1)"><path d="M3,6 C4.65685425,6 6,4.65685425 6,3 C6,1.34314575 4.65685425,0 3,0 C1.34314575,0 0,1.34314575 0,3 C0,4.65685425 1.34314575,6 3,6 Z" stroke="#EBEBEB" stroke-width="2" fill="none" stroke-miterlimit="5"></path></g></g><g transform="translate(12.0 14.0)"><g clip-path="url(#i1)"><path d="M3,6 C4.65685425,6 6,4.65685425 6,3 C6,1.34314575 4.65685425,0 3,0 C1.34314575,0 0,1.34314575 0,3 C0,4.65685425 1.34314575,6 3,6 Z" stroke="#EBEBEB" stroke-width="2" fill="none" stroke-miterlimit="5"></path></g></g><g transform="translate(7.0 16.0) scale(1.0 -1.0)"><path d="M0.5,3.5 L5.5,0.5" stroke="#EBEBEB" stroke-width="1" fill="none" stroke-linecap="square" stroke-miterlimit="10"></path></g><g transform="translate(7.0 6.0)"><path d="M0.5,3.5 L5.5,0.5" stroke="#EBEBEB" stroke-width="1" fill="none" stroke-linecap="square" stroke-miterlimit="10"></path></g></g></svg>