<?xml version="1.0" encoding="UTF-8"?><svg version="1.1" width="21px" height="21px" viewBox="0 0 21.0 21.0" xmlns="http://www.w3.org/2000/svg" xmlns:xlink="http://www.w3.org/1999/xlink"><defs><clipPath id="i0"><path d="M21,0 L21,21 L0,21 L0,0 L21,0 Z"></path></clipPath><clipPath id="i1"><path d="M3.5,0 L7,3.30864198 L6.26865672,4 L3.5,1.38271605 L0.731343284,4 L0,3.30864198 L3.5,0 Z"></path></clipPath><clipPath id="i2"><path d="M1,0 L1,11 L0,11 L0,0 L1,0 Z"></path></clipPath><clipPath id="i3"><path d="M5.76923077,0 L5.76923077,1.08333333 L1.73076923,1.08333333 C1.38461538,1.08333333 1.15384615,1.3 1.15384615,1.625 L1.15384615,11.375 C1.15384615,11.7 1.38461538,11.9166667 1.73076923,11.9166667 L13.2692308,11.9166667 C13.6153846,11.9166667 13.8461538,11.7 13.8461538,11.375 L13.8461538,1.625 C13.8461538,1.3 13.6153846,1.08333333 13.2692308,1.08333333 L9.23076923,1.08333333 L9.23076923,0 L13.2692308,0 C14.25,0 15,0.704166667 15,1.625 L15,11.375 C15,12.2958333 14.25,13 13.2692308,13 L1.73076923,13 C0.75,13 0,12.2958333 0,11.375 L0,1.625 C0,0.704166667 0.75,0 1.73076923,0 L5.76923077,0 Z"></path></clipPath></defs><g clip-path="url(#i0)"><g transform="translate(3.0 1.0)"><g transform="translate(4.0 0.0)"><g clip-path="url(#i1)"><polygon points="0,0 7,0 7,4 0,4 0,0" stroke="none" fill="#EBEBEB"></polygon></g></g><g transform="translate(7.0 1.0)"><g clip-path="url(#i2)"><polygon points="0,0 1,0 1,11 0,11 0,0" stroke="none" fill="#EBEBEB"></polygon></g></g><g transform="translate(0.0 5.0)"><g clip-path="url(#i3)"><polygon points="0,0 15,0 15,13 0,13 0,0" stroke="none" fill="#EBEBEB"></polygon></g></g></g></g></svg>