<?xml version="1.0" encoding="UTF-8"?><svg version="1.1" width="21px" height="21px" viewBox="0 0 21.0 21.0" xmlns="http://www.w3.org/2000/svg" xmlns:xlink="http://www.w3.org/1999/xlink"><defs><clipPath id="i0"><path d="M21,0 L21,21 L0,21 L0,0 L21,0 Z"></path></clipPath><clipPath id="i1"><path d="M0,0 L7.03427289,6 L0,12 L0,0 Z"></path></clipPath><clipPath id="i2"><path d="M8.97722584,0 L8.97722584,5.28318928 C8.46332782,4.79960429 7.11186347,5.20520787 4.92283278,6.5 C2.73380209,7.79479213 1.13939722,9.62812547 0.139618179,12 C-0.300935941,8.89982269 0.301110196,6.23315602 1.94575659,4 C3.59040299,1.76684398 5.93422607,0.433510647 8.97722584,0 Z"></path></clipPath></defs><g clip-path="url(#i0)"><g transform="translate(11.837607658314255 3.0)"><g clip-path="url(#i1)"><polygon points="0,0 7.03427289,0 7.03427289,12 0,12 0,0" stroke="none" fill="#D7D7D7"></polygon></g></g><g transform="translate(3.8603818205111677 6.000000000007276)"><g clip-path="url(#i2)"><polygon points="0,0 8.97722584,0 8.97722584,12 0,12 0,0" stroke="none" fill="#D7D7D7"></polygon></g></g></g></svg>